<svg xmlns="http://www.w3.org/2000/svg" id="a" viewBox="0 0 1733 455.61"><defs><style>.b{fill:#fff;fill-rule:evenodd;}</style></defs><path class="b" d="m233.84,241.7l-29.4,2.45-.99,1.38-.9.42-.12-1.63-.99-12.04-.12-1.6,1.17.09.95,1.34,29.48-2.67.91,12.26h0Zm11.16-7.08l-10.54,6.86-.89-11.92,11.42,5.06h0Z"></path><path class="b" d="m1721.19,319.75l-29.5-.46-1.12,1.28-.94.33.04-1.64.21-12.08.04-1.6,1.16.21.81,1.43,29.6.26-.3,12.29h0Zm11.81-5.94l-11.16,5.79.3-11.96,10.87,6.17h0Z"></path><path class="b" d="m155.94,249.28c-57.94,6.71-97.2,30.04-121.36,69.7-20.29,33.32-26.88,50.65-15.12,80.28,4.42,11.12,14.53,22.74,25.71,30.68,7.12,5.06,14.66,8.67,21.51,9.34,15.16,1.49,31.36-1.59,44.21-6.91,32.1-13.3,60.84-41.66,84.49-66.47,35.19-36.91,46.61-51.28,77.38-89.4,10.03-12.43,25.8-32.13,40.07-50.24,5.08-47.51,22.43-95.06,43.57-136.56,4.39-8.62,8.81-17.32,14.28-23.82,6.53-7.77,14.51-12.65,25.08-12.34,8.82.27,14.74,5.2,18.16,12.34,4.2,8.79,4.1,21.38,1.09,30.06-13.32,38.41-39.75,69.17-62.84,101.17-5.26,7.28-15.23,20.19-26.38,34.38-.84,9.04-1.19,18.08-1,27.06.11,5.43,1.04,12.15,3.44,18.08,2.02,5,5.06,9.53,10.03,11.5,15.79,6.24,33.57-2.52,47.08-9.94,7.32-4.02,14.59-8.31,21.77-12.87,18.53-41.94,42.86-81.88,67.03-119.88,15.33-24.1,36.48-55.77,54.8-77.7,4.98-5.96,11.53-11.14,18.25-13.75,5.57-2.16,11.28-2.61,16.56-.88,5.21,1.71,10.19,5.54,14.06,12.65,3.66,6.75,3.4,16.41.16,26.97-6.33,20.6-23.4,45.37-28.53,52.98-33.59,49.78-80.36,95.49-131.68,128.72-6.5,15.06-12.21,30.38-16.85,45.97-7,23.57-13.78,55.76-10.24,81.01.95,6.75,1.8,14.52,4.05,21.5,2.73,8.47,7.76,15.69,19.29,16.34,8.82.49,13.29-1.58,19.94-8.89,8.37-9.2,19.41-25.16,41.25-51.55,4.84-5.85,10.33-14.02,15.76-22.83l.89-1.5c9.97-16.51,28.11-50.83,28.11-50.83,1.72-3.26,5.74-4.52,9.01-2.83,3.27,1.69,4.57,5.69,2.92,8.98,0,0-12.56,24.91-26.43,48.05-.74,1.26-1.45,2.45-2.12,3.57-13.19,21.85-14.19,33.61-13.48,43.02.87,11.58,5.56,21.83,12.23,28.39,3.93,3.87,8.54,6.43,13.42,6.83,12.87,1.05,23.6-3.4,28.55-7.01,30.88-22.48,41.4-58.96,55.25-99.51,3.55-10.39,8.45-26.23,10.42-41.56.2-1.54.37-3.08.51-4.61-17.68,2.73-34.51,3.77-48.45,1.9-8.03-1.07-12.93-4.8-15.68-9.41-2.55-4.25-3.27-9.53-2.29-14.99,1.26-7.03,5.43-14.39,11.16-19.43,8.81-7.75,21.99-12.03,34.77-11.75,17.07.37,26.48,11.03,31.84,28.04.95,3.03,1.58,6.32,1.94,9.79,27.36-5.55,55.41-14.47,76.24-21.91,8.74-3.12,21.94-12.34,24.39-14.04,7.61-5.26,9.3,9.68,8.89,10.06-5.41,5.22-11.16,10.1-17.07,14.74-9.25,7.26-42.47,27.79-51.98,37.3-23,23-28.12,39.14-38.86,78.75-1.41,5.21-8.22,29.09-5.96,47.17.71,5.74,2.21,10.89,5.9,13.91,2.18,1.78,5.15,2.62,8.98,2.52,20.54-.55,32.88-11.52,41.57-23.38,6.4-8.73,10.95-17.98,15.13-24.7,8.21-13.18,26.56-67.01,36.41-85.85,18.04-61.63,34.35-120.06,62.4-179.44,9.99-21.14,14.83-30.25,29.24-50.7,3.84-5.46,8.13-11.52,13.37-15.8,6.35-5.18,13.97-8.01,23.61-5.65,6.95,1.7,11.35,6.92,13.63,13.64,2.67,7.89,2.2,17.91,1.15,23.19-5.41,27.39-18.61,41.06-41.98,77.32-38.49,59.73-52.89,80.54-88.56,141.89l-.38.68c-3.15,10.77-6.35,21.63-9.7,32.63-7.58,24.95-10.79,43.24-12.42,69.23-.24,3.77-1.31,11.49-.07,18.32.8,4.34,2.63,8.49,8.15,8.63,3.69.09,6.87-1.32,9.98-3.9,4.05-3.36,7.89-8.45,12.11-15.05,19.13-29.86,54.72-115.79,71.93-158.46,5.59-14.02,9.86-24.71,9.86-24.71,1.37-3.43,5.26-5.11,8.7-3.75,3.44,1.36,5.13,5.25,3.78,8.69,0,0-2.97,7.56-7.86,19.72-9.4,23.55-24.23,60.82-27.21,68.81-8.65,23.2-20.89,68.27-13.4,93.31,1,3.36,2.68,7.55,5.45,10.79,2.11,2.48,4.96,4.37,8.87,4.15,15.64-.9,21.84-6.91,35.64-27.41,26.92-39.95,85.61-174.51,85.61-174.51,1.46-3.36,5.36-4.92,8.74-3.5,3.38,1.42,5,5.29,3.63,8.69,0,0-39.61,98.59-54.5,142.98-2.33,6.94-7.76,26.5-5.71,41.06.97,6.89,3.76,12.67,11.55,12.68,25.26.01,31.66-13.48,43.04-30.24,8.57-12.63,6.97-10.18,20.34-28.7,11.78-16.32,23.55-32.61,35.18-48.96,3.09-8.53,5.76-16.25,7.34-22.46,18.09-70.99,37.41-141.31,66.25-208.75,13.31-31.13,24.76-54.63,42.56-83.39,2.04-3.3,6.96-10.54,12.45-14.06,3.59-2.29,7.44-3.21,11.18-2.4,15.57,3.37,22.49,20.38,23.99,34.13,3.38,30.92-13.02,70.56-25.61,97.12-34.8,73.45-79.44,140.33-126.27,206.22-4.63,12.75-9.95,27.04-13.83,40.68-4.17,14.64-6.86,28.41-4.21,38.12,2.13,7.8,6.62,14.7,11.95,18.91,2.91,2.29,6.04,3.82,9.13,3.78,14.76-.18,24.41-11.47,32.35-23,15.86-23.01,33.8-57.88,45.86-82.63,6.67-16.36,14.2-30.07,14.2-30.07,1.74-3.15,5.65-4.37,8.88-2.76,3.22,1.61,4.59,5.47,3.12,8.76,0,0-5.61,12.45-14.11,29.88-3.02,7.49-5.79,15.48-7.43,22.82-2.38,10.68-3.53,25.59-1.46,38.93,1.26,8.17,3.67,15.77,8.08,21.09,2.71,3.26,15.88,15.66,30.43,17.01,8.28.77,19.62-1.55,30.87-19.77,11.79-19.09,18.89-41.43,21.95-50.49,10.8-31.96,14.56-44.04,15.69-64.18-11.42,6.44-22.68,9.19-32.2,8.01-11.14-1.39-22.48-9.15-29.38-20.67-7.01-11.7-9.28-25.9-3.56-37.16,6.68-13.15,18.02-18.79,31.75-21.2,13.84-2.44,25.63,1.38,34.03,9.47,8.09,7.8,13.1,19.79,13.19,34.59v1.23c14.17-11.08,27.07-23.31,35.01-29.27,3.48-2.61,19.01-15.05,19.01-15.05,2.46-1.97,5.95-1.97,8.4.01,2.45,1.97,3.2,5.38,1.8,8.2,0,0-27.48,55.43-31.93,104.49-2.88,31.69,5.31,68.9,15.14,86.07,1.08,1.89,2.17,3.5,3.27,4.78.51.58,1.3,1.23,1.78,1.6.68-.58,1.33-1.51,2.11-2.61,2.51-3.58,5.12-8.84,7.91-15.36,11.71-27.32,25.75-75.31,42.15-118.25,13.63-35.69,27.25-55.38,41.15-67.53,1.33-1.16,3.55-2.3,6.48-2.94,4.36-.94,10.84-.99,16.4.13,3.65.73,6.92,1.99,9.23,3.59,2.49,1.73,4.09,3.92,4.82,6.32,2.22,7.3,5.51,15.4,10.42,21.99,2.26,3.04,4.87,5.75,7.93,7.82,2.9-4.98,5.91-9.58,8.99-13.65,12.72-16.84,43.98-56.06,64.74-67.63,8.19-4.57,19.06-8.74,28.67-4.86,9.57,3.87,14.83,11.78,16.61,21.02,2.43,12.55-1.99,27.61-9.81,36.27-12.93,14.32-34.67,29.81-57.03,38.78-15.47,6.21-31.24,9.26-44.72,7.14-.46-.07-.91-.15-1.35-.24-13.47,26.78-23.42,61.59-24.35,87.32-.48,13.52,3.67,29.89,17.23,43.47,23.39,23.44,48.73,22.26,84.67,20.98,21.79-.77,47.14-9.33,57.95-22.33,14.71-17.71,14.71-38.25,16.12-56.33,1.26-16.21,3.69-30.66,14.06-41.15,10.01-10.11,27.9-16.95,61.38-16.7,2.07-2.48,5.19-4.04,8.67-3.99l37.92.5-.3,22.19-37.92-.5h-.07c-3.7-.07-6.95-1.95-8.91-4.78-27.72-.16-42.9,4.3-51.23,12.72-8.18,8.27-9.22,19.96-10.22,32.75-1.6,20.58-2.43,43.71-19.19,63.86-12.71,15.29-42.17,26.25-67.8,27.17-40.32,1.43-68.41,1.38-94.65-24.92-16.66-16.7-21.73-36.82-21.14-53.44.97-27.04,11.3-63.44,25.34-91.87-12.58-8.06-20.36-23.31-24.62-36.92-.67-.3-2.66-1.15-4.08-1.44-4.04-.81-10.83-.02-11.81.11-12.62,11.18-24.67,29.42-37.05,61.86-16.47,43.12-30.59,91.32-42.35,118.76-3.24,7.56-6.35,13.63-9.26,17.78-2.61,3.72-5.29,6.12-7.7,7.32-3.63,1.82-7.44,1.77-11.32-.26-3.49-1.83-7.32-5.84-10.78-11.87-10.73-18.76-20-59.35-16.85-93.96,2.75-30.22,13.82-62.78,22.45-84.4-9.65,7.59-25.16,22.34-41.45,34.07-.53,27.91-3.73,38.89-16.75,77.38-3.24,9.56-10.8,33.09-23.24,53.24-15.58,25.23-32.07,27.15-43.54,26.09-18.84-1.75-36.01-17.59-39.51-21.82-5.8-7-9.35-16.85-11.02-27.6-.92-6-1.28-12.27-1.2-18.42-7.74,14.14-15.88,27.95-23.52,39.06-10.4,15.09-23.92,28.56-43.24,28.8-5.9.07-12.06-2.28-17.61-6.66-7.35-5.79-13.66-15.18-16.59-25.91-3.12-11.42-.75-27.66,4.11-44.86l-9.32,12.92c-13.23,18.32-11.65,15.9-20.12,28.38-14.07,20.75-22.9,36.14-54.15,36.13-6.51,0-11.47-1.93-15.27-4.98-5.34-4.29-8.43-11.13-9.56-19.25-1.75-12.43,1.09-28.05,3.76-38.52-6.38,11.97-12.26,22.22-17.12,29.43-17.44,25.9-26.25,32.18-46.01,33.31-16.18.92-24.76-13.87-27.94-24.5-3.07-10.29-3.23-23.7-1.72-37.78-7.46,15.59-14.37,28.9-19.92,37.55-11.06,17.26-21.16,25.44-33.72,25.13-11-.27-16.75-6.3-19.61-14.26-3.27-9.12-1.89-21.46-1.54-26.94.46-7.3,1.04-14.02,1.79-20.45-1.41,3.02-2.68,5.5-3.78,7.25-4.33,6.95-9.08,16.5-15.7,25.54-10.84,14.8-26.4,28.18-52.04,28.87-7.67.21-13.45-1.97-17.83-5.54-6.14-5.01-9.55-13.14-10.74-22.65-2.49-20.05,4.72-46.57,6.33-52.34,11.81-42.24,15.81-54.24,41.88-82.55,3.49-3.79,13.43-12.56,22.71-18.98-16.62,5.13-35.01,10.07-53.07,13.61-1.11,18.89-7.25,39.83-11.7,52.87-14.83,43.41-26.99,81.95-60.05,106.03-6.53,4.75-20.6,10.92-37.55,9.53-18.52-1.52-35.98-21.65-37.93-47.6-.16-2.1-.26-4.31-.22-6.68-16.07,19.97-25.2,32.75-32.37,40.63-10.17,11.18-17.13,14.01-30.62,13.26-15.56-.87-24-8.93-28.94-19.53-4.24-9.09-5.6-20.35-6.93-29.85-3.79-27.01,3.17-61.48,10.66-86.7,3.04-10.24,6.53-20.36,10.4-30.37-2.21,1.27-4.42,2.51-6.64,3.73-16.69,9.16-38.96,18.36-58.47,10.65-6.85-2.71-11.9-7.93-15.38-14.35-4.61-8.49-6.4-19.13-6.58-27.43-.07-3.02-.07-6.05-.02-9.08-10.56,13.31-20.86,26.15-28.14,35.18-31.05,38.48-42.59,52.98-78.11,90.23-24.87,26.08-55.31,55.62-89.07,69.61-14.73,6.1-33.29,9.57-50.66,7.88-8.86-.86-18.76-5.21-27.97-11.76-13.31-9.46-25.15-23.43-30.41-36.67-13.49-33.95-7.13-54.03,16.13-92.21,26.11-42.87,68.22-68.63,130.73-75.99,1.72-3.19,4.96-5.47,8.83-5.8l37.78-3.2,1.87,22.12-37.78,3.2h-.07c-3.27.26-6.34-.94-8.54-3.05Zm1039.19,39.57c.02-3.36.01-6.96-.01-10.89-.07-10.64-3.27-19.4-9.08-25.01-5.51-5.31-13.32-7.52-22.39-5.92-9.42,1.66-17.53,5.04-22.12,14.07-3.73,7.35-1.46,16.54,3.11,24.18,4.68,7.81,11.96,13.31,19.53,14.25,9.14,1.14,20.01-3.42,30.96-10.68h0Zm-179.46,7.87c37.74-54.6,73.1-110.51,101.72-170.92,11.67-24.65,27.53-61.25,24.39-89.92-.52-4.78-1.77-10.25-4.28-14.8-2.02-3.65-4.87-6.73-9.2-7.67-.41-.09-.72.33-1.11.58-.91.58-1.77,1.36-2.58,2.19-2.57,2.65-4.63,5.9-5.69,7.62-17.42,28.15-28.62,51.14-41.64,81.6-26.46,61.9-44.81,126.25-61.61,191.31h0Zm407.03-19.41c10.53.76,22.39-2.04,34.1-6.74,20.39-8.18,40.27-22.26,52.06-35.32,4.46-4.95,7.18-12.96,7.03-20.46-.13-6.51-2.47-12.8-8.91-15.4-2.47-1-5.09-.71-7.62-.03-3.39.91-6.65,2.59-9.48,4.17-19.54,10.9-48.6,48.15-60.57,64-2.25,2.99-4.47,6.26-6.62,9.78h0Zm-812.35-3.76c-.27-2.89-.78-5.64-1.58-8.16-3.39-10.77-8.52-18.42-19.33-18.65-9.39-.2-19.14,2.72-25.61,8.42-3.31,2.91-5.81,7.08-6.71,11.16-.5,2.27-.56,4.53.5,6.29,1,1.68,3.02,2.6,5.94,2.99,13.46,1.8,29.72.71,46.78-2.04h0Zm144.64-14.86c19.49-32,34.75-54.89,62.33-97.69,22.04-34.2,34.99-46.81,40.1-72.65.74-3.71,1.18-10.74-.7-16.27-.75-2.23-1.8-4.35-4.11-4.91-6.05-1.49-10.46,1.32-14.16,5.06-3.29,3.32-6.05,7.4-8.66,11.09-13.84,19.64-18.48,28.4-28.07,48.7-19.94,42.19-33.86,83.91-46.73,126.67h0Zm-326.24-8.04c42.59-30.79,81-70.1,109.57-112.45,4.14-6.14,16.63-24.1,23.86-41.32,2.24-5.34,3.97-10.58,4.67-15.33.52-3.62.55-6.88-.81-9.38-1.85-3.4-3.97-5.5-6.45-6.32-2.41-.79-5-.35-7.53.64-4.75,1.84-9.28,5.62-12.8,9.84-17.98,21.53-38.73,52.64-53.78,76.3-19.92,31.33-40,63.98-56.72,98.02h0Zm-99.18-45.84c4.88-6.33,8.96-11.72,11.73-15.56,22.33-30.95,48.15-60.56,61.04-97.71,1.69-4.86,2.08-11.55.53-17.06-1.1-3.9-3.19-7.39-7.5-7.52-6.14-.18-10.59,3.03-14.4,7.56-4.87,5.79-8.68,13.6-12.59,21.28-17.03,33.43-31.61,70.9-38.81,109.03h0Z"></path></svg>